<?xml version="1.0" encoding="utf-8"?>
<!-- Generator: Adobe Illustrator 18.0.0, SVG Export Plug-In . SVG Version: 6.00 Build 0)  -->
<!DOCTYPE svg PUBLIC "-//W3C//DTD SVG 1.1//EN" "http://www.w3.org/Graphics/SVG/1.1/DTD/svg11.dtd">
<svg version="1.1" xmlns="http://www.w3.org/2000/svg" xmlns:xlink="http://www.w3.org/1999/xlink" x="0px" y="0px"
	 viewBox="0 0 408.2 167.5" enable-background="new 0 0 408.2 167.5" xml:space="preserve">
<g id="Capa_1">
	<g display="none">
		<path display="inline" fill="none" stroke="#1A1A1A" d="M319.3,54.6l6.1,1.5c0,0-9.4,8.9-14.4,10.3c-5,1.4-7.4,2.2-8.5,1.4
			c-1.2-0.8-3.5-32.1-3.5-45.5h15.5l2.4-2.2h1.9v-2.8h-19.9v-6.8c0,0-0.1-2.4-2.9-2.4c-2.8,0-2.9,2.4-2.9,2.4v6.8h-19.9V20h1.9
			l2.4,2.2h15.5c0,13.4-2.3,44.7-3.5,45.5c-1.2,0.8-3.5,0-8.5-1.4c-5-1.4-14.4-10.3-14.4-10.3l6.1-1.5l-12.4-6.8l0.6,14.1l2.6-3.9
			c0,0,4.8,11.6,17,16.5c12.2,4.9,15.5,12.6,15.5,12.6s3.3-7.6,15.5-12.6c12.2-4.9,17-16.5,17-16.5l2.6,3.9l0.6-14.1L319.3,54.6z"/>
		<path display="inline" fill="none" stroke="#1A1A1A" d="M295.9-4.9c-5.9,0-10.6,4.5-10.6,10c0,4.4,2.9,8.1,7.1,9.4v-3.9
			c-2.3-0.9-4-2.7-3.3-5.6c0.9-3.5,3.1-6.5,6.9-6.5c3.8,0,6.9,2.9,6.9,6.5c0,2.4-1.3,4.4-3.3,5.6v3.9c4.1-1.4,7.1-5.1,7.1-9.4
			C306.5-0.4,301.8-4.9,295.9-4.9z"/>
	</g>
	<g>
		<path fill="#1579E2" d="M25.1,121.3h1.5v-0.9c0-4.8-3.1-6.5-6.8-6.5c-3.1,0-5.9,1.2-7.6,2.1c-1.8,0.8-3.2,0.5-4-1.2l-0.7-1.4
			c-0.9-1.7-0.6-3.1,1.2-4c2.4-1.2,6.6-3,12-3c9.5,0,15.2,5.3,15.2,14.6v19.9c0,2-1,3-3,3h-2.4c-1.9,0-3-1-3-3v-1.4
			c0-1,0.1-1.6,0.1-1.6h-0.1c0,0-3.5,6.9-11.5,6.9c-6.7,0-12.2-4.3-12.2-11C3.6,123.1,16.8,121.3,25.1,121.3z M18.2,137.8
			c5.1,0,8.4-5.2,8.4-9.6v-1.4h-1.5c-4.6,0-12.5,0.7-12.5,6.2C12.7,135.4,14.5,137.8,18.2,137.8z"/>
		<path fill="#1579E2" d="M44.2,110.2c0-1.9,1-3,3-3H50c1.9,0,3,1.1,3,3v2.2c0,0.8-0.1,1.7-0.1,1.7h0.1c1.6-3.1,5.6-7.8,13-7.8
			c8.1,0,12.8,4.2,12.8,14v20.6c0,2-1,3-3,3h-3.1c-1.9,0-3-1-3-3v-18.7c0-4.5-1.2-7.5-5.8-7.5c-6.5,0-10.6,5.4-10.6,12v14.2
			c0,2-1,3-3,3h-3.2c-1.9,0-3-1-3-3V110.2z"/>
		<path fill="#1579E2" d="M105,106.3c5.9,0,9.9,2.2,12,3.7c1.5,1,1.6,2.5,0.6,4.1l-0.9,1.4c-1.1,1.7-2.3,1.7-4,0.8
			c-1.5-1-4-2.2-7.1-2.2c-6.8,0-11.2,5.1-11.2,11.4c0,6.2,4.4,11.5,11.4,11.5c3.6,0,6.5-1.6,8.2-2.8c1.8-1,3.2-0.8,4.1,0.9l0.7,1.4
			c0.9,1.6,0.6,3-0.8,4c-2.2,1.7-6.7,4.2-13,4.2c-12.2,0-19.9-8.6-19.9-19.2C85,115.1,92.8,106.3,105,106.3z"/>
		<path fill="#1579E2" d="M125.5,95.8c0-1.9,1.1-3,3-3h3.1c2,0,3,1.1,3,3v14.8c0,1.8-0.2,3.1-0.2,3.1h0.1c1.8-3.5,6.4-7.4,12.7-7.4
			c8.1,0,12.8,4.2,12.8,14v20.6c0,2-1.1,3-3,3H154c-2,0-3-1-3-3v-18.7c0-4.5-1.2-7.5-5.8-7.5c-6.4,0-10.6,5.2-10.6,12.2v14
			c0,2-1,3-3,3h-3.1c-1.9,0-3-1-3-3V95.8z"/>
		<path fill="#1579E2" d="M186.5,106.3c11.2,0,20.2,8,20.2,19.2c0,11.3-9.1,19.2-20.2,19.2c-11.2,0-20.2-7.9-20.2-19.2
			C166.3,114.3,175.3,106.3,186.5,106.3z M186.5,137c6,0,10.9-4.6,10.9-11.4c0-6.8-5-11.4-10.9-11.4s-10.9,4.7-10.9,11.4
			C175.6,132.4,180.5,137,186.5,137z"/>
		<path fill="#23A9FF" d="M213.4,110.2c0-1.9,1-3,3-3h2.8c1.9,0,3,1.1,3,3v3.5c0,1.4-0.2,2.5-0.2,2.5h0.1c1.4-4.4,5.5-9.3,10.7-9.3
			c2,0,2.7,1,2.7,3v2.8c0,1.9-1.2,3-3.1,3c-6.7,0-9.9,6.6-9.9,13.3v11.8c0,2-1,3-3,3h-3.2c-1.9,0-3-1-3-3V110.2z"/>
		<path fill="#23A9FF" d="M240.4,98v-2.2c0-1.9,1-3,3-3h3.2c1.9,0,3,1.1,3,3V98c0,1.9-1.1,3-3,3h-3.2
			C241.4,100.9,240.4,99.9,240.4,98z M240.4,110.2c0-1.9,1-3,3-3h3.2c1.9,0,3,1.1,3,3v30.7c0,2-1,3-3,3h-3.2c-1.9,0-3-1-3-3V110.2z"
			/>
		<path fill="#23A9FF" d="M345.3,95.8c0-1.9,1-3,3-3h3.2c1.9,0,3,1.1,3,3v35.9c0,3.6,1.5,4.2,2.9,4.4c1.3,0.1,2.2,0.9,2.2,2.6v2.4
			c0,1.9-0.9,3.1-3,3.1c-4.9,0-11.2-1.3-11.2-11.8V95.8z"/>
		<path fill="#23A9FF" d="M381.9,106.3c10.4,0,16.3,7.4,16.3,17.5c0,1.6-1.4,3.1-3.2,3.1h-22.4c0.6,6.6,5.5,10.1,11,10.1
			c3.4,0,6.2-1.3,7.9-2.4c1.8-0.9,3.1-0.6,4,1l0.9,1.4c0.9,1.7,0.6,3.1-1,4c-2.4,1.5-6.7,3.7-12.5,3.7c-12.2,0-19.7-8.8-19.7-19.2
			C363.2,114.3,370.9,106.3,381.9,106.3z M389.1,121.4c-0.1-5.1-3.2-8.1-7.4-8.1c-4.7,0-8,3.2-8.9,8.1H389.1z"/>
	</g>
</g>
<g id="Layer_4">
	<g>
		<path fill="#808080" d="M321.1,65.4l6.3,1.5c0,0-9.7,9.2-14.9,10.6c-5.2,1.4-7.6,2.2-8.8,1.4c-1.2-0.8-3.6-33.1-3.6-46.9h16
			l2.4-2.3h2v-2.9H300v-7c0,0-0.1-2.5-3-2.5c-2.9,0-3,2.5-3,2.5v7h-20.5v2.9h2l2.4,2.3h16c0,13.8-2.4,46.1-3.6,46.9
			c-1.2,0.8-3.6,0-8.8-1.4c-5.2-1.4-14.9-10.6-14.9-10.6l6.3-1.5l-12.8-7l0.7,14.5l2.7-4.1c0,0,5,12,17.5,17.1c12.6,5.1,16,13,16,13
			s3.4-7.9,16-13c12.6-5.1,17.5-17.1,17.5-17.1l2.7,4.1l0.7-14.5L321.1,65.4z"/>
		<path fill="#808080" d="M296.9,4c-6,0-10.9,4.6-10.9,10.3c0,4.5,3,8.3,7.3,9.7v-4c-2.4-1-4.2-2.8-3.4-5.7c0.9-3.6,3.2-6.7,7.1-6.7
			c3.9,0,7.1,3,7.1,6.7c0,2.4-1.4,4.6-3.5,5.7v4c4.2-1.4,7.3-5.2,7.3-9.7C307.9,8.7,303,4,296.9,4z"/>
	</g>
	<g>
		<path fill="#666666" d="M272.8,28.1V30h2.7l1.9,2h12.4c0-1,0.1-2,0.1-3h-16L272.8,28.1z"/>
		<path fill="#666666" d="M266.5,67l6.4-1.5l-3.4-1.9l-5.1,1.5C264.4,65.1,263.9,64.8,266.5,67z"/>
		<path fill="#666666" d="M312.1,28.6l-15.3-0.2c0,14,2.2,45.7,2.9,47c0.4,0.8,2.2,3.2,4,3.7c-2.1-9.6-3.6-35-3.6-47h16l2.5-1.9
			l1.9,0.4l0-2.5h-7.3L312.1,28.6z"/>
		<path fill="#666666" d="M260.5,68.7l0.2,4.1l1.2-1.9C261.1,69.8,261,69.6,260.5,68.7z"/>
		<path fill="#666666" d="M321.1,65.4c0,0,4.3,1.1,6.3,1.5c0,0-3.9,3.5-5.1,4.5c-2.8,3.6-7.1,8.3-13.3,10.7
			c-10.2,4.1-14.4,10.1-15.6,12.2c2.7,2.8,3.7,5,3.7,5s3.4-7.9,16-13c12.6-5.1,17.5-17.1,17.5-17.1l2.7,4.1l0.6-15L321.1,65.4z"/>
		<path fill="#666666" d="M276.9,82.2c-3.4-1.4-6.3-3.3-8.6-5.3c2.8,3.4,7,7.2,12.7,9.5c4.4,1.8,7.7,3.9,10.1,5.9
			C289,89.6,284.7,85.4,276.9,82.2z"/>
	</g>
</g>
<g id="Layer_2" display="none">
	<path display="inline" fill="#23A9FF" d="M394.1,134.4c2.5,1.6,3.8,3.3,3.9,5.2c0.3,10.1-40.7,19.8-88.4,21.3
		c-47.7,1.6-83.9-5.5-84.2-15.6c-0.1-2.1,1.5-4.2,4.5-6.1c-9.7,3.2-15.2,6.8-15.1,10.4c0.3,10.1,41.1,17.1,94.3,15.3
		c53.3-1.8,98.9-11.6,98.5-21.7C407.6,139.8,402.7,136.8,394.1,134.4z"/>
	<path display="inline" fill="#1579E2" d="M285.2,169.3c-53.8,1.8-94.7-7.8-95.2-22.5c-0.2-5.2,5.6-10.5,14.3-14.6
		c-11.5,4.5-18.1,10.8-17.9,17c0.5,14.6,36.7,24,84.3,22.4c13.6-0.5,28.7-1.5,38.6-3.1C302.3,169,293.1,169,285.2,169.3z"/>
</g>
<g id="Layer_2_copy">
	<path fill="#23A9FF" d="M290.2,111.2c0.3,0.2,0.7,0.4,1,0.7c-1.5-2.7-2.6-8.6-15.2-6.8c-12.6,1.8-18.5-6-21.6-18.7
		c0,0,4.4,21.9,4.4,23.9v45.1c0,2,0.9,2.7,2.8,2.7h3.1c2,0,3.1-0.6,3.1-2.7v-13c0-1.9-0.3-3.4-0.3-3.4h0.1c0,0,3,5.7,10.6,5.7
		c9.6,0,16.8-7.5,16.8-19.2C295.1,119.6,293.3,114.6,290.2,111.2z M276.5,137.1c-6,0-9.1-5.6-9.1-11.3c0-8.1,4.5-11.6,9.3-11.6
		c5.3,0,9.1,4.5,9.1,11.5C285.8,133,281.6,137.1,276.5,137.1z"/>
	<path fill="#23A9FF" d="M328.7,107.7c9.7-6.1,10.3-21.3,10.3-21.3c-3.1,12.8-9.1,20.4-21.6,18.6c-7-1-10.4,0.3-11.3,0.6
		c-0.8,0.3-3.2,0.5-4.4,4.6v45.1c0,2,1.3,2.7,3.2,2.7h3.1c2,0,2.7-0.6,2.7-2.7v-13c0-1.9,0.1-3.4,0.1-3.4h0.1c0,0,3,5.7,10.6,5.7
		c9.6,0,16.8-7.5,16.8-19.2C338.5,116.9,334.8,110.4,328.7,107.7z M320,137.1c-6,0-9.1-5.6-9.1-11.3c0-8.1,4.5-11.6,9.3-11.6
		c5.3,0,9.1,4.5,9.1,11.5C329.2,133,325,137.1,320,137.1z"/>
	<path fill="#1579E2" d="M311.3,101.4C311.3,101.4,311.2,101.4,311.3,101.4c0.4-2.1,5.5-6.1,14.1-6.9c8.2-0.7,8.7-9.4,6.9-17.4
		c0,0,5.4,12-3,19.1C325.4,99.6,313.3,97.9,311.3,101.4z"/>
	<path fill="#1579E2" d="M283,101.4C283,101.4,283.1,101.4,283,101.4c-0.4-2.1-5.5-6.1-14.1-6.9c-8.2-0.7-8.7-9.4-6.9-17.4
		c0,0-5.4,12,3,19.1C268.9,99.6,281,97.9,283,101.4z"/>
</g>
</svg>
